#Comment line ignore any data following # character 
#Hierarchical Translation and Rotation (.htr) file 
[Header]	
#Header keywords are followed by a single value 
FileType HTR		#Single word string
DataType HTRS		#Translation followed by rotation and scale data
FileVersion 1		#integer
NumSegments 64		#integer
NumFrames 2		#integer
DataFrameRate 30		#integer, data frame rate in this file
EulerRotationOrder ZYX
CalibrationUnits mm
RotationUnits Degrees
GlobalAxisofGravity Y
BoneLengthAxis Y
ScaleFactor 1.00
[SegmentNames&Hierarchy]
#CHILD	PARENT
Pinger_Root GLOBAL
Pelvis Pinger_Root
L_Hip Pelvis
R_Hip Pelvis
Rear_Leg01 Pelvis
Spine1 Pelvis
L_Leg01 L_Hip
L_Leg02 L_Leg01
L_Leg03 L_Leg02
L_Foot L_Leg03
L_Toe1_01 L_Foot
L_Toe2_01 L_Foot
L_Toe3_01 L_Foot
planeAlignerLeft L_Foot
L_Toe1_02 L_Toe1_01
L_Toe1_03 L_Toe1_02
L_Toe2_02 L_Toe2_01
L_Toe2_03 L_Toe2_02
L_Toe3_02 L_Toe3_01
L_Toe3_03 L_Toe3_02
planeLockWeightLeft planeAlignerLeft
R_Leg01 R_Hip
R_Leg02 R_Leg01
R_Leg03 R_Leg02
R_Foot R_Leg03
planeAlignerRight R_Foot
R_Toe1_01 R_Foot
R_Toe2_01 R_Foot
R_Toe3_01 R_Foot
planeLockWeightRight planeAlignerRight
R_Toe1_02 R_Toe1_01
R_Toe1_03 R_Toe1_02
R_Toe2_02 R_Toe2_01
R_Toe2_03 R_Toe2_02
R_Toe3_02 R_Toe3_01
R_Toe3_03 R_Toe3_02
Rear_Leg02 Rear_Leg01
Rear_Leg03 Rear_Leg02
Rear_Leg04 Rear_Leg03
Rear_Foot Rear_Leg04
planeAlignerCenter Rear_Foot
Rear_Toe1_01 Rear_Foot
Rear_Toe2_01 Rear_Foot
Rear_Toe3_01 Rear_Foot
planeLockWeightCenter planeAlignerCenter
Rear_Toe1_02 Rear_Toe1_01
Rear_Toe1_03 Rear_Toe1_02
Rear_Toe2_02 Rear_Toe2_01
Rear_Toe2_03 Rear_Toe2_02
Rear_Toe3_02 Rear_Toe3_01
Rear_Toe3_03 Rear_Toe3_02
Back_Bone Spine1
Head Spine1
Motor_Bone Back_Bone
Ping_Mechanism Back_Bone
BN_LookIK Head
bottomMouth Head
L_Mouth01 Head
L_mouthFront Head
mouthGun Head
R_Mouth01 Head
R_mouthFront Head
TopMouth Head
weapon_bone Head
[BasePosition]
#SegmentName Tx, Ty, Tz, Rx, Ry, Rz, BoneLength
Pinger_Root 0.000000 0.000000 0.000000 -90.000000 0.000000 0.000000 10.000000 
Pelvis 0.000000 0.000000 0.000000 0.000000 0.000000 0.000000 10.000000 
L_Hip 0.000000 0.000000 0.000000 0.000000 0.000000 0.000000 10.000000 
R_Hip 0.000000 0.000000 0.000000 0.000000 0.000000 0.000000 10.000000 
Rear_Leg01 0.000000 0.000000 0.000000 0.000000 0.000000 0.000000 10.000000 
Spine1 0.000000 0.000000 0.000000 0.000000 0.000000 0.000000 10.000000 
L_Leg01 0.000000 0.000000 0.000000 0.000000 0.000000 0.000000 10.000000 
L_Leg02 0.000000 0.000000 0.000000 0.000000 0.000000 0.000000 10.000000 
L_Leg03 0.000000 0.000000 0.000000 0.000000 0.000000 0.000000 10.000000 
L_Foot 0.000000 0.000000 0.000000 0.000000 0.000000 0.000000 10.000000 
L_Toe1_01 0.000000 0.000000 0.000000 0.000000 0.000000 0.000000 10.000000 
L_Toe2_01 0.000000 0.000000 0.000000 0.000000 0.000000 0.000000 10.000000 
L_Toe3_01 0.000000 0.000000 0.000000 0.000000 0.000000 0.000000 10.000000 
planeAlignerLeft 0.000000 0.000000 0.000000 0.000000 0.000000 0.000000 10.000000 
L_Toe1_02 0.000000 0.000000 0.000000 0.000000 0.000000 0.000000 10.000000 
L_Toe1_03 0.000000 0.000000 0.000000 0.000000 0.000000 0.000000 10.000000 
L_Toe2_02 0.000000 0.000000 0.000000 0.000000 0.000000 0.000000 10.000000 
L_Toe2_03 0.000000 0.000000 0.000000 0.000000 0.000000 0.000000 10.000000 
L_Toe3_02 0.000000 0.000000 0.000000 0.000000 0.000000 0.000000 10.000000 
L_Toe3_03 0.000000 0.000000 0.000000 0.000000 0.000000 0.000000 10.000000 
planeLockWeightLeft 0.000000 0.000000 0.000000 0.000000 0.000000 0.000000 10.000000 
R_Leg01 0.000000 0.000000 0.000000 0.000000 0.000000 0.000000 10.000000 
R_Leg02 0.000000 0.000000 0.000000 0.000000 0.000000 0.000000 10.000000 
R_Leg03 0.000000 0.000000 0.000000 0.000000 0.000000 0.000000 10.000000 
R_Foot 0.000000 0.000000 0.000000 0.000000 0.000000 0.000000 10.000000 
planeAlignerRight 0.000000 0.000000 0.000000 0.000000 0.000000 0.000000 10.000000 
R_Toe1_01 0.000000 0.000000 0.000000 0.000000 0.000000 0.000000 10.000000 
R_Toe2_01 0.000000 0.000000 0.000000 0.000000 0.000000 0.000000 10.000000 
R_Toe3_01 0.000000 0.000000 0.000000 0.000000 0.000000 0.000000 10.000000 
planeLockWeightRight 0.000000 0.000000 0.000000 0.000000 0.000000 0.000000 10.000000 
R_Toe1_02 0.000000 0.000000 0.000000 0.000000 0.000000 0.000000 10.000000 
R_Toe1_03 0.000000 0.000000 0.000000 0.000000 0.000000 0.000000 10.000000 
R_Toe2_02 0.000000 0.000000 0.000000 0.000000 0.000000 0.000000 10.000000 
R_Toe2_03 0.000000 0.000000 0.000000 0.000000 0.000000 0.000000 10.000000 
R_Toe3_02 0.000000 0.000000 0.000000 0.000000 0.000000 0.000000 10.000000 
R_Toe3_03 0.000000 0.000000 0.000000 0.000000 0.000000 0.000000 10.000000 
Rear_Leg02 0.000000 0.000000 0.000000 0.000000 0.000000 0.000000 10.000000 
Rear_Leg03 0.000000 0.000000 0.000000 0.000000 0.000000 0.000000 10.000000 
Rear_Leg04 0.000000 0.000000 0.000000 0.000000 0.000000 0.000000 10.000000 
Rear_Foot 0.000000 0.000000 0.000000 0.000000 0.000000 0.000000 10.000000 
planeAlignerCenter 0.000000 0.000000 0.000000 0.000000 0.000000 0.000000 10.000000 
Rear_Toe1_01 0.000000 0.000000 0.000000 0.000000 0.000000 0.000000 10.000000 
Rear_Toe2_01 0.000000 0.000000 0.000000 0.000000 0.000000 0.000000 10.000000 
Rear_Toe3_01 0.000000 0.000000 0.000000 0.000000 0.000000 0.000000 10.000000 
planeLockWeightCenter 0.000000 0.000000 0.000000 0.000000 0.000000 0.000000 10.000000 
Rear_Toe1_02 0.000000 0.000000 0.000000 0.000000 0.000000 0.000000 10.000000 
Rear_Toe1_03 0.000000 0.000000 0.000000 0.000000 0.000000 0.000000 10.000000 
Rear_Toe2_02 0.000000 0.000000 0.000000 0.000000 0.000000 0.000000 10.000000 
Rear_Toe2_03 0.000000 0.000000 0.000000 0.000000 0.000000 0.000000 10.000000 
Rear_Toe3_02 0.000000 0.000000 0.000000 0.000000 0.000000 0.000000 10.000000 
Rear_Toe3_03 0.000000 0.000000 0.000000 0.000000 0.000000 0.000000 10.000000 
Back_Bone 0.000000 0.000000 0.000000 0.000000 0.000000 0.000000 10.000000 
Head 0.000000 0.000000 0.000000 0.000000 0.000000 0.000000 10.000000 
Motor_Bone 0.000000 0.000000 0.000000 0.000000 0.000000 0.000000 10.000000 
Ping_Mechanism 0.000000 0.000000 0.000000 0.000000 0.000000 0.000000 10.000000 
BN_LookIK 0.000000 0.000000 0.000000 0.000000 0.000000 0.000000 10.000000 
bottomMouth 0.000000 0.000000 0.000000 0.000000 0.000000 0.000000 10.000000 
L_Mouth01 0.000000 0.000000 0.000000 0.000000 0.000000 0.000000 10.000000 
L_mouthFront 0.000000 0.000000 0.000000 0.000000 0.000000 0.000000 10.000000 
mouthGun 0.000000 0.000000 0.000000 0.000000 0.000000 0.000000 10.000000 
R_Mouth01 0.000000 0.000000 0.000000 0.000000 0.000000 0.000000 10.000000 
R_mouthFront 0.000000 0.000000 0.000000 0.000000 0.000000 0.000000 10.000000 
TopMouth 0.000000 0.000000 0.000000 0.000000 0.000000 0.000000 10.000000 
weapon_bone 0.000000 0.000000 0.000000 0.000000 0.000000 0.000000 10.000000 
#Beginning of Data. Separated by tabs
#Fr	Tx	Ty	Tz	Rx	Ry	Rz	SF
[Pinger_Root]
16 0.000000 0.000000 0.000000 -0.000075 -0.000000 -0.000020 0.000000
17 0.000000 0.000000 0.000000 -0.000075 -0.000000 -0.000020 0.000000
[Pelvis]
16 -59.805260 1828.565186 3380.772461 -67.121628 -73.744942 54.334160 3844.066895
17 -15.844687 1748.744873 3394.835938 -69.061905 -75.770668 57.307869 3818.804932
[L_Hip]
16 5.766392 125.831482 872.656799 -103.888748 -79.556770 42.804512 881.701050
17 5.766392 125.831482 872.656799 -135.279129 -75.957924 71.051132 881.701050
[R_Hip]
16 5.765438 125.836372 -872.654907 -88.868744 49.988449 -17.547955 881.699829
17 5.765438 125.836372 -872.654907 -89.634956 52.357048 -20.492365 881.699829
[Rear_Leg01]
16 -192.298416 -925.602966 -0.001907 175.318726 17.513908 -142.243073 945.367432
17 -192.298416 -925.602966 -0.001907 174.586044 15.128102 -140.641678 945.367432
[Spine1]
16 290.604584 5.007505 0.000477 0.655463 -16.266232 26.874960 290.647736
17 290.604584 5.007505 0.000477 1.246237 -14.192709 27.758905 290.647736
[L_Leg01]
16 761.932007 -0.002384 -0.069261 66.310974 -50.579773 -65.925858 761.932068
17 761.932007 -0.002384 -0.069261 57.800819 -45.143360 -56.371937 761.932068
[L_Leg02]
16 1441.140503 -0.000954 -0.000715 7.803121 3.904589 -119.187675 1441.140503
17 1441.140503 -0.000954 -0.000715 8.080033 4.378749 -126.283066 1441.140503
[L_Leg03]
16 1686.963989 -0.000715 -0.000954 -0.132793 0.087693 146.795044 1686.963989
17 1686.963989 -0.000715 -0.000954 -0.137975 0.092483 148.005936 1686.963989
[L_Foot]
16 3041.570068 -30.715107 11.297464 0.204702 42.491528 51.269875 3041.746094
17 3041.570068 -30.715107 11.297464 -1.140631 41.434166 52.502659 3041.746094
[L_Toe1_01]
16 -188.216690 -224.732346 -21.137953 94.115700 -1.626563 -179.630325 293.899567
17 -188.216690 -224.732346 -21.137953 94.115700 -1.626563 -179.630325 293.899567
[L_Toe2_01]
16 200.746536 -219.926590 148.838394 -98.201561 -27.887577 -34.222591 332.896027
17 200.746536 -219.926590 148.838394 -98.201538 -27.887331 -34.222893 332.896027
[L_Toe3_01]
16 188.832520 -219.859131 -191.078659 -99.860039 29.451977 -64.657303 347.140900
17 188.832520 -219.859131 -191.078659 -99.859589 29.452251 -64.657227 347.140900
[planeAlignerLeft]
16 0.812531 -811.448792 -0.314951 0.000000 -90.000000 -90.001900 811.449280
17 0.812531 -811.448792 -0.314951 0.000000 -90.000000 -90.001900 811.449280
[L_Toe1_02]
16 413.761139 0.000477 0.000000 0.001661 0.070897 0.001661 413.761139
17 413.761139 0.000477 0.000000 0.001661 0.070897 0.001661 413.761139
[L_Toe1_03]
16 464.317322 0.000358 -0.000089 0.001673 -0.448396 -0.003292 464.317322
17 464.317322 0.000358 -0.000089 0.001673 -0.448396 -0.003292 464.317322
[L_Toe2_02]
16 342.235809 -0.000477 0.000238 0.004684 -81.218475 0.004684 342.235809
17 342.235809 -0.000477 0.000238 0.004684 -81.215706 0.004684 342.235809
[L_Toe2_03]
16 420.210846 -0.000715 0.000000 179.993271 42.301838 -179.999084 420.210846
17 420.210846 -0.000715 0.000000 179.993271 42.301838 -179.999084 420.210846
[L_Toe3_02]
16 329.270111 0.000954 0.000000 0.004675 -84.704498 0.004675 329.270111
17 329.270111 0.000954 0.000000 0.004675 -84.707649 0.004675 329.270111
[L_Toe3_03]
16 439.137451 -0.001907 0.000954 179.993088 46.274662 -179.999390 439.137451
17 439.137451 -0.001907 0.000954 179.993088 46.274662 -179.999390 439.137451
[planeLockWeightLeft]
16 -0.000954 0.000238 -0.000305 -0.011826 -0.004376 0.005620 0.001029
17 -0.000954 0.000238 -0.000305 -0.011826 -0.004376 0.005620 0.001029
[R_Leg01]
16 761.455627 -0.001907 -0.000358 101.172974 0.686828 101.492531 761.455688
17 761.455627 -0.001907 -0.000358 100.378777 4.402279 101.656128 761.455688
[R_Leg02]
16 1441.140625 0.000000 -0.000238 -2.108876 -0.666276 -91.860939 1441.140625
17 1441.140625 0.000000 -0.000238 -2.132123 -0.637383 -89.604637 1441.140625
[R_Leg03]
16 1686.963989 0.000954 0.001431 0.115804 -0.071239 141.387741 1686.963989
17 1686.963989 0.000954 0.001431 0.109819 -0.067687 140.842300 1686.963989
[R_Foot]
16 3041.560059 -30.531288 -11.204481 2.285092 -10.679592 42.391609 3041.734131
17 3041.560059 -30.531288 -11.204481 0.798496 -10.512569 41.023830 3041.734131
[planeAlignerRight]
16 -0.635147 -812.270569 -0.364304 0.000000 -89.960434 -90.005180 812.270874
17 -0.635147 -812.270569 -0.364304 0.000000 -89.960434 -90.005180 812.270874
[R_Toe1_01]
16 -188.383347 -224.864899 21.052242 77.325417 -4.361116 -175.405960 294.101532
17 -188.383347 -224.864899 21.052242 77.324516 -4.363132 -175.392502 294.101532
[R_Toe2_01]
16 200.637817 -220.002121 -148.787384 -84.724457 32.131763 -46.480873 332.857574
17 200.637817 -220.002121 -148.787384 -84.724457 32.131763 -46.480873 332.857574
[R_Toe3_01]
16 188.606735 -220.092957 191.126343 -71.135025 -17.475210 -68.397926 347.192566
17 188.606735 -220.092957 191.126343 -71.133743 -17.478834 -68.400566 347.192566
[planeLockWeightRight]
16 -0.000477 0.000000 0.000000 -0.011823 -0.004379 -0.000027 0.000477
17 -0.000477 0.000000 0.000000 -0.011823 -0.004379 -0.000027 0.000477
[R_Toe1_02]
16 413.762085 0.000477 -0.000119 0.001385 -25.843079 0.001385 413.762085
17 413.762085 0.000477 -0.000119 0.001385 -25.838892 0.001385 413.762085
[R_Toe1_03]
16 464.317810 0.000000 0.001088 0.004309 58.392216 0.004309 464.317810
17 464.317810 0.000000 0.001088 0.004309 58.392216 0.004309 464.317810
[R_Toe2_02]
16 342.234741 -0.000954 0.000238 -0.002336 -78.159355 -0.002336 342.234741
17 342.234741 -0.000954 0.000238 -0.002336 -78.158997 -0.002336 342.234741
[R_Toe2_03]
16 420.210846 0.000715 -0.000268 -179.993973 74.505859 -179.997513 420.210846
17 420.210846 0.000715 -0.000268 -179.993973 74.506210 -179.997513 420.210846
[R_Toe3_02]
16 329.270355 -0.000477 -0.000954 0.001177 -80.759201 0.001177 329.270355
17 329.270355 -0.000477 -0.000954 0.001177 -80.759201 0.001177 329.270355
[R_Toe3_03]
16 439.137939 0.000238 0.001431 -179.996521 77.411003 -179.992996 439.137939
17 439.137939 0.000238 0.001431 -179.996521 77.411369 -179.992996 439.137939
[Rear_Leg02]
16 1162.777710 -0.029802 0.005960 2.428769 18.039316 -87.885818 1162.777710
17 1162.777710 -0.029802 0.005960 0.215492 16.670668 -94.393425 1162.777710
[Rear_Leg03]
16 607.192505 -0.013351 -0.073195 0.006594 -0.001702 57.155205 607.192505
17 607.192505 -0.013351 -0.073195 0.006549 -0.001867 60.041878 607.192505
[Rear_Leg04]
16 995.874512 -0.020504 -0.011921 -0.036620 -0.015131 45.099388 995.874573
17 995.874512 -0.020504 -0.011921 -0.039351 -0.017973 50.176189 995.874573
[Rear_Foot]
16 3096.176270 -0.067472 -0.041425 42.547775 71.282181 -111.077332 3096.176270
17 3096.176270 -0.067472 -0.041425 44.668808 73.433319 -110.630981 3096.176270
[planeAlignerCenter]
16 0.350077 0.966311 -838.790894 0.000009 0.000003 -179.999985 838.791565
17 0.350077 0.966311 -838.790894 0.000009 0.000003 -179.999985 838.791565
[Rear_Toe1_01]
16 0.653352 83.966492 -371.173737 0.587958 23.904232 90.993011 380.553192
17 0.653352 83.966492 -371.173737 0.499309 26.349072 90.818489 380.553192
[Rear_Toe2_01]
16 178.200760 -294.826019 -362.060547 -8.407252 19.329149 -69.965401 499.765686
17 178.200760 -294.826019 -362.060547 -8.367795 22.330582 -69.446732 499.765686
[Rear_Toe3_01]
16 -153.359680 -308.780914 -362.060852 3.822618 16.223892 -110.106293 499.952881
17 -153.359680 -308.780914 -362.060852 3.854435 20.205070 -110.358215 499.952881
[planeLockWeightCenter]
16 -0.000062 0.000238 0.000000 -0.011814 -0.004373 -0.000015 0.000246
17 -0.000062 0.000238 0.000000 -0.011814 -0.004373 -0.000015 0.000246
[Rear_Toe1_02]
16 379.707825 0.194073 0.000477 -0.005339 -31.320513 -0.005339 379.707855
17 379.707825 0.194073 0.000477 -0.003986 -32.165512 -0.003986 379.707855
[Rear_Toe1_03]
16 500.129700 0.165701 0.000119 -179.992325 78.842407 -179.995834 500.129761
17 500.129700 0.165701 0.000119 -179.984360 85.254555 -179.987869 500.129761
[Rear_Toe2_02]
16 340.494507 0.000238 -0.000954 0.001255 -48.474552 0.001255 340.494507
17 340.494507 0.000238 -0.000954 0.001232 -54.609772 0.001232 340.494507
[Rear_Toe2_03]
16 433.103577 0.000000 0.000238 -0.003341 42.683937 0.000477 433.103546
17 433.103577 0.000000 0.000238 0.003395 49.554413 0.003395 433.103546
[Rear_Toe3_02]
16 340.494141 -0.000358 -0.000477 -0.002565 -39.800388 -0.002565 340.494171
17 340.494141 -0.000358 -0.000477 -0.002487 -48.122261 -0.002487 340.494171
[Rear_Toe3_03]
16 433.103577 0.001431 -0.000238 0.000762 33.778141 -0.003202 433.103546
17 433.103577 0.001431 -0.000238 0.000490 42.307167 -0.003333 433.103546
[Back_Bone]
16 1312.175781 -701.934692 0.000954 3.762267 1.517775 -76.893486 1488.125488
17 1312.175781 -701.934692 0.000954 2.745449 2.217190 -80.200912 1488.125488
[Head]
16 1406.159424 809.709290 0.001431 -0.851836 -1.337734 42.799042 1622.625488
17 1406.159424 809.709290 0.001431 -0.837938 -1.349998 42.247032 1622.625488
[Motor_Bone]
16 1158.364380 -417.834747 0.000477 -1.626175 -11.965211 -125.628326 1231.419434
17 1158.364380 -417.834747 0.000477 -0.575435 -11.214936 -125.574120 1231.419434
[Ping_Mechanism]
16 1266.932617 -475.806244 48.613285 0.000103 -0.000053 82.120995 1354.205688
17 1262.525879 -470.744019 40.158615 0.000103 -0.000053 82.120995 1348.029785
[BN_LookIK]
16 193.241119 1380.371704 -0.002861 0.000000 89.965736 -31.038179 1393.832153
17 193.241119 1380.371704 -0.002861 0.000000 89.965736 -31.038179 1393.832153
[bottomMouth]
16 -435.092926 615.759399 -0.000954 -0.000022 0.000016 73.527184 753.966492
17 -435.092926 615.759399 -0.000954 -0.000022 0.000016 73.527184 753.966492
[L_Mouth01]
16 554.440979 7.658243 838.222046 150.204178 23.759130 109.605339 1005.027161
17 554.440979 7.658243 838.222046 150.204178 23.759130 109.605339 1005.027161
[L_mouthFront]
16 551.629089 934.514771 339.150421 0.000081 2.804060 79.119301 1136.941284
17 551.629089 934.514771 339.150421 0.000081 2.804060 79.119301 1136.941284
[mouthGun]
16 55.332661 1627.420898 0.000000 0.000023 0.000009 -11.038128 1628.361328
17 55.332661 1627.420898 0.000000 0.000023 0.000009 -11.038128 1628.361328
[R_Mouth01]
16 554.442383 7.659197 -838.223938 29.795891 -23.759109 109.605331 1005.029541
17 554.442383 7.659197 -838.223938 29.795891 -23.759109 109.605331 1005.029541
[R_mouthFront]
16 551.629089 934.514282 -339.151367 0.000029 -2.803930 79.119133 1136.941162
17 551.629089 934.514282 -339.151367 0.000029 -2.803930 79.119133 1136.941162
[TopMouth]
16 461.269867 -56.106091 -0.008583 -0.000059 -0.000268 92.025169 464.669525
17 461.269867 -56.106091 -0.008583 -0.000059 -0.000268 92.025169 464.669525
[weapon_bone]
16 -987.239868 1448.372803 0.001431 0.000000 89.965736 -31.038221 1752.833740
17 -987.239868 1448.372803 0.001431 0.000000 89.965736 -31.038221 1752.833740
